HIERARCHY
ROOT Hips
{
	OFFSET 0.000000 100.481300 0.000000
	CHANNELS 6 Xposition Yposition Zposition Xrotation Yrotation Zrotation
	JOINT Spine
	{
		OFFSET -0.279200 12.230698 -2.892100
		CHANNELS 3 Xrotation Yrotation Zrotation
		JOINT Spine1
		{
			OFFSET -0.325700 14.269203 -3.374200
			CHANNELS 3 Xrotation Yrotation Zrotation
			JOINT Spine2
			{
				OFFSET -0.372300 16.307602 -0.352600
				CHANNELS 3 Xrotation Yrotation Zrotation
				JOINT Neck
				{
					OFFSET -0.418800 17.814194 8.416900
					CHANNELS 3 Xrotation Yrotation Zrotation
					JOINT Head
					{
						OFFSET 0.000000 7.031097 3.806800
						CHANNELS 3 Xrotation Yrotation Zrotation
						JOINT HeadTop_End
						{
							OFFSET 0.000000 24.646606 12.978600
							CHANNELS 3 Xrotation Yrotation Zrotation
							End Site
							{
								OFFSET 0.000000 27.854965 0.000000
							}
						}
					}
				}
				JOINT LeftShoulder
				{
					OFFSET 16.952999 14.495407 -7.737500
					CHANNELS 3 Xrotation Yrotation Zrotation
					JOINT LeftArm
					{
						OFFSET 9.308998 -2.777710 0.208600
						CHANNELS 3 Xrotation Yrotation Zrotation
						JOINT LeftForeArm
						{
							OFFSET 29.972298 0.000000 0.000000
							CHANNELS 3 Xrotation Yrotation Zrotation
							JOINT LeftHand
							{
								OFFSET 26.026505 0.000000 0.000000
								CHANNELS 3 Xrotation Yrotation Zrotation
								JOINT LeftHandThumb1
								{
									OFFSET 12.240501 -7.147949 9.207150
									CHANNELS 3 Xrotation Yrotation Zrotation
									JOINT LeftHandThumb2
									{
										OFFSET 4.138618 -2.389435 2.389433
										CHANNELS 3 Xrotation Yrotation Zrotation
										JOINT LeftHandThumb3
										{
											OFFSET 2.726913 -1.574387 1.574386
											CHANNELS 3 Xrotation Yrotation Zrotation
											JOINT LeftHandThumb4
											{
												OFFSET 3.941010 -2.275345 2.275342
												CHANNELS 3 Xrotation Yrotation Zrotation
												End Site
												{
													OFFSET -0.005798 5.087799 0.009903
												}
											}
										}
									}
								}
								JOINT LeftHandIndex1
								{
									OFFSET 24.424698 -1.985611 5.953459
									CHANNELS 3 Xrotation Yrotation Zrotation
									JOINT LeftHandIndex2
									{
										OFFSET 6.426697 0.000000 0.000000
										CHANNELS 3 Xrotation Yrotation Zrotation
										JOINT LeftHandIndex3
										{
											OFFSET 5.337898 0.000000 0.000000
											CHANNELS 3 Xrotation Yrotation Zrotation
											JOINT LeftHandIndex4
											{
												OFFSET 4.409401 0.000000 0.000000
												CHANNELS 3 Xrotation Yrotation Zrotation
												End Site
												{
													OFFSET 0.000000 4.409363 0.014373
												}
											}
										}
									}
								}
								JOINT LeftHandMiddle1
								{
									OFFSET 23.810104 0.000000 0.000000
									CHANNELS 3 Xrotation Yrotation Zrotation
									JOINT LeftHandMiddle2
									{
										OFFSET 7.176498 0.000000 0.000000
										CHANNELS 3 Xrotation Yrotation Zrotation
										JOINT LeftHandMiddle3
										{
											OFFSET 6.774902 0.000000 0.000000
											CHANNELS 3 Xrotation Yrotation Zrotation
											JOINT LeftHandMiddle4
											{
												OFFSET 5.403328 0.000000 0.000000
												CHANNELS 3 Xrotation Yrotation Zrotation
												End Site
												{
													OFFSET -0.027702 5.403244 0.017414
												}
											}
										}
									}
								}
								JOINT LeftHandRing1
								{
									OFFSET 22.908401 -0.839279 -6.020567
									CHANNELS 3 Xrotation Yrotation Zrotation
									JOINT LeftHandRing2
									{
										OFFSET 6.337502 0.000000 0.000000
										CHANNELS 3 Xrotation Yrotation Zrotation
										JOINT LeftHandRing3
										{
											OFFSET 5.779297 0.000000 0.000000
											CHANNELS 3 Xrotation Yrotation Zrotation
											JOINT LeftHandRing4
											{
												OFFSET 4.965698 0.000000 0.000000
												CHANNELS 3 Xrotation Yrotation Zrotation
												End Site
												{
													OFFSET 0.000000 4.965668 0.016186
												}
											}
										}
									}
								}
								JOINT LeftHandPinky1
								{
									OFFSET 20.037003 -1.530319 -10.950146
									CHANNELS 3 Xrotation Yrotation Zrotation
									JOINT LeftHandPinky2
									{
										OFFSET 5.254700 0.000000 0.000000
										CHANNELS 3 Xrotation Yrotation Zrotation
										JOINT LeftHandPinky3
										{
											OFFSET 4.810204 0.000000 0.000000
											CHANNELS 3 Xrotation Yrotation Zrotation
											JOINT LeftHandPinky4
											{
												OFFSET 3.647202 0.000000 0.000000
												CHANNELS 3 Xrotation Yrotation Zrotation
												End Site
												{
													OFFSET 0.000000 3.647186 0.011889
												}
											}
										}
									}
								}
							}
						}
					}
				}
				JOINT RightShoulder
				{
					OFFSET -15.141001 14.495407 -7.737500
					CHANNELS 3 Xrotation Yrotation Zrotation
					JOINT RightArm
					{
						OFFSET -9.308998 -2.777710 0.208500
						CHANNELS 3 Xrotation Yrotation Zrotation
						JOINT RightForeArm
						{
							OFFSET -29.972300 0.000000 0.000000
							CHANNELS 3 Xrotation Yrotation Zrotation
							JOINT RightHand
							{
								OFFSET -26.026505 0.000000 0.000000
								CHANNELS 3 Xrotation Yrotation Zrotation
								JOINT RightHandThumb1
								{
									OFFSET -12.240601 -7.148026 9.207092
									CHANNELS 3 Xrotation Yrotation Zrotation
									JOINT RightHandThumb2
									{
										OFFSET -4.138618 -2.389435 2.389433
										CHANNELS 3 Xrotation Yrotation Zrotation
										JOINT RightHandThumb3
										{
											OFFSET -2.726974 -1.574417 1.574421
											CHANNELS 3 Xrotation Yrotation Zrotation
											JOINT RightHandThumb4
											{
												OFFSET -3.941010 -2.275345 2.275343
												CHANNELS 3 Xrotation Yrotation Zrotation
												End Site
												{
													OFFSET 0.005814 5.087799 0.009927
												}
											}
										}
									}
								}
								JOINT RightHandIndex1
								{
									OFFSET -24.424698 -1.985657 5.953444
									CHANNELS 3 Xrotation Yrotation Zrotation
									JOINT RightHandIndex2
									{
										OFFSET -6.426697 0.000000 0.000000
										CHANNELS 3 Xrotation Yrotation Zrotation
										JOINT RightHandIndex3
										{
											OFFSET -5.337898 0.000000 0.000000
											CHANNELS 3 Xrotation Yrotation Zrotation
											JOINT RightHandIndex4
											{
												OFFSET -4.409401 0.000000 0.000000
												CHANNELS 3 Xrotation Yrotation Zrotation
												End Site
												{
													OFFSET 0.000000 4.409363 0.014408
												}
											}
										}
									}
								}
								JOINT RightHandMiddle1
								{
									OFFSET -23.810097 0.000000 0.000000
									CHANNELS 3 Xrotation Yrotation Zrotation
									JOINT RightHandMiddle2
									{
										OFFSET -7.176498 0.000000 0.000000
										CHANNELS 3 Xrotation Yrotation Zrotation
										JOINT RightHandMiddle3
										{
											OFFSET -6.774902 0.000000 0.000000
											CHANNELS 3 Xrotation Yrotation Zrotation
											JOINT RightHandMiddle4
											{
												OFFSET -5.403328 0.000000 0.000000
												CHANNELS 3 Xrotation Yrotation Zrotation
												End Site
												{
													OFFSET 0.027702 5.403244 0.017457
												}
											}
										}
									}
								}
								JOINT RightHandRing1
								{
									OFFSET -22.908302 -0.839325 -6.020576
									CHANNELS 3 Xrotation Yrotation Zrotation
									JOINT RightHandRing2
									{
										OFFSET -6.337502 0.000000 0.000000
										CHANNELS 3 Xrotation Yrotation Zrotation
										JOINT RightHandRing3
										{
											OFFSET -5.779297 0.000000 0.000000
											CHANNELS 3 Xrotation Yrotation Zrotation
											JOINT RightHandRing4
											{
												OFFSET -4.965698 0.000000 0.000000
												CHANNELS 3 Xrotation Yrotation Zrotation
												End Site
												{
													OFFSET 0.000000 4.965668 0.016226
												}
											}
										}
									}
								}
								JOINT RightHandPinky1
								{
									OFFSET -20.037003 -1.530334 -10.950259
									CHANNELS 3 Xrotation Yrotation Zrotation
									JOINT RightHandPinky2
									{
										OFFSET -5.254700 0.000000 0.000000
										CHANNELS 3 Xrotation Yrotation Zrotation
										JOINT RightHandPinky3
										{
											OFFSET -4.810204 0.000000 0.000000
											CHANNELS 3 Xrotation Yrotation Zrotation
											JOINT RightHandPinky4
											{
												OFFSET -3.647202 0.000000 0.000000
												CHANNELS 3 Xrotation Yrotation Zrotation
												End Site
												{
													OFFSET 0.000000 3.647186 0.011917
												}
											}
										}
									}
								}
							}
						}
					}
				}
			}
		}
	}
	JOINT LeftUpLeg
	{
		OFFSET 15.427100 -6.655098 0.678600
		CHANNELS 3 Xrotation Yrotation Zrotation
		JOINT LeftLeg
		{
			OFFSET 4.081073 -39.591068 13.024000
			CHANNELS 3 Xrotation Yrotation Zrotation
			JOINT LeftFoot
			{
				OFFSET -4.081074 -37.707932 -15.979700
				CHANNELS 3 Xrotation Yrotation Zrotation
				JOINT LeftToeBase
				{
					OFFSET 5.346399 -15.068900 20.645000
					CHANNELS 3 Xrotation Yrotation Zrotation
					JOINT LeftToe_End
					{
						OFFSET 2.754700 0.931300 11.300900
						CHANNELS 3 Xrotation Yrotation Zrotation
						End Site
						{
							OFFSET 0.000000 11.669021 0.000000
						}
					}
				}
			}
		}
	}
	JOINT RightUpLeg
	{
		OFFSET -15.569500 -6.655098 0.678600
		CHANNELS 3 Xrotation Yrotation Zrotation
		JOINT RightLeg
		{
			OFFSET -4.081825 -39.591045 13.023800
			CHANNELS 3 Xrotation Yrotation Zrotation
			JOINT RightFoot
			{
				OFFSET 4.081824 -37.707954 -15.979600
				CHANNELS 3 Xrotation Yrotation Zrotation
				JOINT RightToeBase
				{
					OFFSET -5.346400 -15.068900 20.645000
					CHANNELS 3 Xrotation Yrotation Zrotation
					JOINT RightToe_End
					{
						OFFSET -2.754700 0.931300 11.300900
						CHANNELS 3 Xrotation Yrotation Zrotation
						End Site
						{
							OFFSET 0.000000 11.669021 0.000000
						}
					}
				}
			}
		}
	}
}
MOTION
Frames: 4
Frame Time: 0.033333
1.312858 95.971344 -0.302346 -3.794802 -2.706022 -5.109654 3.089681 1.645857 2.430148 0.742742 0.578086 0.480926 0.714896 0.619398 0.494359 6.630839 0.951717 2.220412 -7.911830 0.083286 10.350810 0.000000 -0.000000 -0.000000 0.879868 -17.233074 -13.464624 5.309408 -14.919438 -67.663276 0.000002 0.000000 0.000000 -32.200227 -1.239917 -5.385843 -0.556570 2.346458 4.825708 11.927013 25.548125 17.016711 -13.807748 3.562943 9.042434 0.000002 0.000000 -0.000002 0.064736 -0.890507 -7.855915 0.267517 1.751764 -17.364165 0.057519 0.819797 -8.026635 0.000000 -0.000000 -0.000003 -0.063156 2.736812 -15.987963 0.268496 1.754893 -17.396164 0.300224 1.853071 -18.403986 0.000000 0.000000 0.000000 0.147706 3.681167 -21.406644 0.386240 2.093786 -20.901434 0.282368 1.798548 -17.843627 -0.000000 -0.000000 -0.000003 0.964887 5.613052 -27.357063 0.268871 1.756081 -17.408342 0.241936 1.667790 -16.506817 -0.000000 -0.000000 -0.000001 1.470641 13.647174 13.095350 -3.258327 -15.991206 62.858948 0.000000 51.904209 0.000005 -21.144107 0.881615 -6.867964 -2.081185 0.828215 -4.517289 12.893508 -30.151819 -16.088856 -15.516047 -3.634623 -12.734852 0.000005 -0.000001 0.000000 0.569919 1.362432 -0.281139 0.179063 -1.280368 15.924074 0.030640 -0.533885 6.568329 0.000000 -0.000002 -0.000000 -0.109931 -1.698251 9.376794 0.196911 -1.341260 16.703414 0.221239 -1.419768 17.712962 -0.000000 -0.000003 0.000002 -0.223659 -2.322787 19.628861 0.367112 -1.814027 22.878834 0.276388 -1.582075 19.818789 0.000000 -0.000000 -0.000000 0.550109 -4.541002 25.593065 0.283878 -1.602656 20.087738 0.258948 -1.532805 19.176705 0.000002 -0.000000 -0.000001 -14.225140 14.210518 13.053234 18.057661 -0.683629 4.313109 -1.751476 0.492599 -7.664140 -4.909269 0.000001 -0.000001 -0.000001 -0.000001 -0.000000 2.780589 -9.935477 3.166427 10.614135 -8.637098 -3.138756 -7.862623 -5.795728 5.934152 -7.233503 0.000004 -0.000002 0.000001 0.000000 0.000000 
1.299975 96.023727 -0.309305 -3.771761 -2.736765 -5.076704 3.103550 1.624161 2.440343 0.766483 0.537404 0.501723 0.738639 0.578098 0.513709 6.654304 0.821373 2.256124 -7.559520 -0.572839 10.218637 -0.000000 0.000000 0.000001 0.891387 -17.250937 -13.386534 5.114520 -15.264993 -67.722664 -0.000006 -0.016870 -0.000016 -32.425862 -1.345013 -5.449089 -0.576679 2.305996 4.877367 11.904434 25.506090 17.028346 -13.808181 3.561115 9.041962 0.000001 0.000001 -0.000000 0.056126 -0.902765 -7.791872 0.266711 1.749181 -17.337761 0.057142 0.817119 -8.000247 0.000000 -0.000000 0.000000 -0.072312 2.701639 -15.952030 0.268265 1.754153 -17.388606 0.299979 1.852338 -18.396449 -0.000000 0.000000 -0.000000 0.137377 3.653556 -21.378403 0.386233 2.093771 -20.901224 0.282358 1.798517 -17.843343 0.000000 0.000000 -0.000005 0.941614 5.570421 -27.321073 0.268381 1.754525 -17.392409 0.241516 1.666373 -16.492375 -0.000000 0.000000 -0.000002 1.437807 13.836005 13.298629 -0.966606 -9.443822 62.203714 0.000002 41.771436 0.000001 -20.902433 1.770547 -6.221043 -2.287942 1.316934 -4.589961 11.205233 -26.976322 -16.431495 -15.037611 -4.687255 -13.081558 -0.000002 -0.000000 0.000003 0.929183 3.587398 -5.363790 0.182678 -1.292878 16.083813 0.032171 -0.547004 6.730559 -0.000000 -0.000001 -0.000000 -0.062824 -0.517442 3.504819 0.193953 -1.331369 16.576405 0.218205 -1.410244 17.590167 -0.000000 -0.000003 -0.000002 -0.316653 -1.483881 14.751595 0.339023 -1.746009 21.974669 0.251840 -1.512214 18.909099 0.000001 0.000001 -0.000001 0.169584 -3.726509 18.963911 0.263583 -1.546039 19.348792 0.239264 -1.475024 18.426744 0.000001 0.000000 0.000000 -14.140172 14.208771 13.000324 17.886730 -0.637353 4.324348 -1.679486 0.496881 -7.691776 -4.910806 0.000004 -0.000003 -0.000000 0.000001 0.000000 2.801701 -9.931727 3.147552 10.484985 -8.630426 -3.132392 -7.787855 -5.766654 5.908987 -7.233790 0.000002 0.000001 -0.000000 0.000001 0.000000 
1.287369 96.077728 -0.313373 -3.761518 -2.779859 -5.031188 3.114354 1.612581 2.447749 0.783786 0.514939 0.522849 0.755954 0.555347 0.534578 6.685241 0.682408 2.282476 -7.114996 -1.048098 9.952928 -0.000000 -0.000000 -0.000000 0.905556 -17.253997 -13.288977 4.915434 -15.714266 -67.789532 0.000009 -0.232869 -0.000014 -32.693319 -1.473692 -5.507157 -0.616308 2.236776 4.886339 11.872689 25.447092 17.046293 -13.809061 3.557490 9.041075 0.000001 0.000000 -0.000002 0.046877 -0.918651 -7.750760 0.267975 1.753218 -17.379042 0.057731 0.821307 -8.041510 -0.000000 -0.000000 0.000001 -0.083214 2.660762 -15.923428 0.268900 1.756179 -17.409350 0.300652 1.854358 -18.417240 0.000000 0.000000 0.000002 0.132026 3.635505 -21.279174 0.386213 2.093719 -20.900681 0.282360 1.798522 -17.843357 0.000000 0.000000 0.000001 0.923971 5.547034 -27.260736 0.268672 1.755451 -17.401903 0.241791 1.667306 -16.501874 -0.000001 0.000001 0.000001 1.390906 14.077910 13.580903 0.957478 -1.286225 61.083229 0.000006 29.125197 0.000000 -20.674849 3.173757 -4.065466 -1.899524 0.454777 -4.691988 9.623246 -23.831126 -16.701617 -14.497054 -5.884860 -13.471623 -0.000000 -0.000000 -0.000001 1.512648 5.382179 -9.507248 0.183219 -1.294768 16.108030 0.032402 -0.548972 6.754743 0.000000 0.000001 -0.000000 0.137032 0.355589 -1.883241 0.191838 -1.324223 16.485056 0.216040 -1.403406 17.501965 -0.000000 -0.000002 -0.000001 -0.348777 -0.400412 9.982776 0.320453 -1.699324 21.357510 0.235558 -1.463823 18.281891 -0.000001 -0.000000 0.000002 -0.076205 -2.827334 11.624239 0.253363 -1.516651 18.966693 0.229243 -1.444617 18.033564 0.000001 -0.000002 -0.000001 -14.022226 14.209375 12.932729 17.700334 -0.580702 4.332530 -1.603773 0.502692 -7.720580 -4.911612 0.000008 -0.000002 -0.000000 0.000001 0.000000 2.832443 -9.937981 3.108676 10.360048 -8.626549 -3.123714 -7.718576 -5.711804 5.887243 -7.236468 -0.000004 -0.000000 -0.000000 -0.000002 -0.000000 
1.271960 96.124832 -0.314785 -3.758655 -2.837506 -4.971057 3.123567 1.611827 2.456533 0.797772 0.512263 0.552285 0.769917 0.552199 0.564026 6.706105 0.538837 2.279308 -6.608104 -1.349069 9.495502 0.000000 -0.000000 0.000001 0.921124 -17.215487 -13.178532 4.693768 -16.247485 -67.876733 -0.000005 -0.514686 -0.000001 -32.996849 -1.632060 -5.511610 -0.661279 2.157718 4.897939 11.848590 25.402218 17.059654 -13.810013 3.553466 9.040000 -0.000001 0.000001 0.000001 0.035669 -0.940303 -7.686395 0.268571 1.755128 -17.398594 0.058011 0.823290 -8.061066 -0.000000 -0.000000 0.000000 -0.085273 2.649726 -15.880217 0.269076 1.756738 -17.415089 0.300836 1.854914 -18.422962 -0.000000 0.000000 -0.000003 0.126499 3.621000 -21.272672 0.386177 2.093622 -20.899713 0.282374 1.798565 -17.843801 -0.000000 -0.000000 0.000000 0.896736 5.511278 -27.191338 0.268332 1.754362 -17.390737 0.241467 1.666212 -16.490722 -0.000000 0.000000 0.000003 1.318805 14.398855 14.000202 3.542656 6.512201 60.135021 -0.000004 19.318485 0.000002 -20.321565 2.896198 -0.125696 -1.692272 0.080893 -5.179513 9.105588 -22.765106 -16.779500 -14.355782 -6.199344 -13.573265 0.000000 0.000000 0.000000 1.623904 5.594266 -10.228452 0.182911 -1.293666 16.094081 0.032260 -0.547846 6.740799 0.000000 0.000001 -0.000000 0.179858 0.431583 -2.807625 0.192744 -1.327292 16.524256 0.217000 -1.406446 17.541160 0.000000 0.000001 -0.000000 -0.359473 0.004421 8.878082 0.317598 -1.691964 21.260453 0.232943 -1.455927 18.179764 0.000002 0.000000 -0.000001 -0.127379 -2.544419 9.760030 0.248498 -1.502433 18.782066 0.224502 -1.429949 17.844185 -0.000001 0.000000 -0.000002 -13.890415 14.217643 12.858118 17.520508 -0.519362 4.331894 -1.537547 0.510503 -7.738179 -4.911846 -0.000001 0.000001 -0.000000 0.000000 0.000000 2.852888 -9.943001 3.051071 10.267486 -8.629559 -3.115634 -7.671283 -5.640761 5.869233 -7.245203 0.000011 0.000000 0.000000 0.000000 0.000000 
